<svg xmlns="http://www.w3.org/2000/svg" version="1.1" xmlns:xlink="http://www.w3.org/1999/xlink" xmlns:svgjs="http://svgjs.com/svgjs" width="1920" height="1080" preserveAspectRatio="none" viewBox="0 0 1920 1080">
    <g mask="url(&quot;#SvgjsMask1098&quot;)" fill="none">
        <rect width="1920" height="1080" x="0" y="0" fill="rgba(239, 231, 226, 1)"></rect>
        <path d="M0,752.872C139.267,775.39,280.562,694.007,385.204,599.389C482.439,511.469,510.959,376.739,553.221,252.648C591.407,140.524,625.586,29.204,619.684,-89.097C613.345,-216.172,605.656,-356.61,518.217,-449.037C431.467,-540.735,286.072,-526.71,166.743,-567.875C39.971,-611.608,-71.974,-714.57,-205.119,-698.57C-344.341,-681.84,-489.023,-604.721,-555.236,-481.114C-620.163,-359.908,-520.528,-213.738,-537.895,-77.338C-554.823,55.615,-704.265,174.459,-654.555,298.925C-605.345,422.139,-421.711,410.94,-312.687,486.55C-197.858,566.186,-137.949,730.567,0,752.872" fill="#dac7bb"></path>
        <path d="M1920 1921.9099999999999C2080.19 1923.5700000000002 2240.939 1874.688 2368.087 1777.2359999999999 2490.1459999999997 1683.684 2535.985 1530.058 2608.324 1394.347 2685.927 1248.76 2817.926 1117.023 2807.779 952.357 2797.475 785.137 2669.417 652.154 2555.045 529.73 2444.081 410.95399999999995 2315.749 309.01 2160.818 259.84799999999996 2003.757 210.01 1835.711 208.22000000000003 1676.578 250.98000000000002 1515.003 294.39599999999996 1337.0549999999998 357.832 1254.537 503.37300000000005 1173.687 645.973 1266.444 821.342 1260.3229999999999 985.153 1255.039 1126.5529999999999 1183.183 1262.8600000000001 1221.063 1399.194 1261.995 1546.511 1355.3980000000001 1676.441 1477.841 1768.013 1605.399 1863.4099999999999 1760.724 1920.26 1920 1921.9099999999999" fill="#ffffff"></path>
    </g>
    <defs>
        <mask id="SvgjsMask1098">
            <rect width="1920" height="1080" fill="#ffffff"></rect>
        </mask>
    </defs>
</svg>